<svg xmlns="http://www.w3.org/2000/svg" width="292" height="166" viewBox="0 0 292 166"><g transform="translate(-1203 -1213)"><path d="M0,0H292V166H0Z" transform="translate(1203 1213)" fill="#f34573"/><g transform="translate(38 6)"><g transform="translate(1283 1304)" fill="rgba(255,255,255,0)" stroke="#fff" stroke-width="4"><rect width="51" height="34" stroke="none"/><rect x="2" y="2" width="47" height="30" fill="none"/></g><line x1="23" y1="11" transform="translate(1285.5 1307.5)" fill="none" stroke="#fff" stroke-width="5"/><path d="M.7,11.1,23,.875" transform="translate(1309.5 1307.5)" fill="rgba(255,255,255,0)" stroke="#fff" stroke-width="5"/><g transform="translate(1307 1317.469)" fill="#fff"><path d="M 2.389591932296753 3.752360343933105 L 1.030672907829285 3.031749725341797 L 2.370276927947998 0.1902768909931183 L 3.701841115951538 3.12091064453125 L 2.389591932296753 3.752360343933105 Z" stroke="none"/><path d="M 2.361899852752686 1.380557298660278 L 1.686350345611572 2.813485145568848 L 2.400544166564941 3.192209482192993 L 3.044295787811279 2.88243556022644 L 2.361899852752686 1.380557298660278 M 2.378647565841675 -1 L 4.359377384185791 3.359369993209839 L 2.378647565841675 4.3125 L 0.374997615814209 3.25 L 2.378647565841675 -1 Z" stroke="none" fill="#fff"/></g><path d="M12.694,22.3,6.046,15.226l6.648-7.073L10.671,6,2,15.226l8.671,9.226Zm7.515,0,6.648-7.073L20.208,8.153,22.232,6,30.9,15.226l-8.671,9.226Z" transform="translate(1322.789 1302.296)" fill="rgba(243,69,115,0)"/><text transform="translate(1223 1282)" fill="#fff" font-size="30" font-family="BaronNeue-Regular, Baron Neue"><tspan x="0" y="0">Meta Digest</tspan></text></g></g></svg>