<svg xmlns="http://www.w3.org/2000/svg" width="387" height="65.5" viewBox="0 0 387 65.5"><g transform="translate(-1081.5 -1337)"><line x1="44" transform="translate(1082.5 1340.5)" fill="none" stroke="#3d3939" stroke-width="6"/><line x1="44" transform="translate(1242.5 1340.5)" fill="none" stroke="#3d3939" stroke-width="6"/><path d="M35,0H0" transform="translate(1082.5 1369.5)" fill="none" stroke="#3d3939" stroke-width="6"/><path d="M35,0H0" transform="translate(1242.5 1369.5)" fill="none" stroke="#3d3939" stroke-width="6"/><path d="M35,0H0" transform="translate(1082.5 1369.5)" fill="none" stroke="#3d3939" stroke-width="6"/><line x1="44" transform="translate(1081.5 1398.5)" fill="none" stroke="#3d3939" stroke-width="6"/><line x1="44" transform="translate(1241.5 1398.5)" fill="none" stroke="#3d3939" stroke-width="6"/><line x1="44" transform="translate(1081.5 1398.5)" fill="none" stroke="#3d3939" stroke-width="6"/><line y2="64" transform="translate(1242.5 1337.5)" fill="none" stroke="#202060" stroke-width="6"/><line y2="58" transform="translate(1155.5 1342.5)" fill="none" stroke="#3d3939" stroke-width="6"/><path d="M0,0H46" transform="translate(1132.5 1340.5)" fill="none" stroke="#202060" stroke-width="6"/><line y2="62" transform="translate(1187.5 1338.5)" fill="none" stroke="#3d3939" stroke-width="6"/><line y2="62" transform="translate(1226.5 1338.5)" fill="none" stroke="#3d3939" stroke-width="6"/><line x2="45" transform="translate(1184.5 1369.5)" fill="none" stroke="#202060" stroke-width="6"/><path d="M0,64V0" transform="translate(1298.5 1337.5)" fill="none" stroke="#3d3939" stroke-width="6"/><g transform="translate(1295.5 1337)" fill="none" stroke="#202060" stroke-width="7"><rect width="39" height="33" stroke="none"/><rect x="3.5" y="3.5" width="32" height="26" fill="none"/></g><path d="M34.714,27.571,4.339,3.446.723.574,0,0" transform="translate(1299.286 1372)" fill="none" stroke="#3d3939" stroke-width="6"/><line y2="64" transform="translate(1348.5 1337.5)" fill="none" stroke="#3d3939" stroke-width="6"/><line y2="63" transform="translate(1387.5 1338.5)" fill="none" stroke="#3d3939" stroke-width="6"/><line y2="63" transform="translate(1405.5 1338.5)" fill="none" stroke="#3d3939" stroke-width="6"/><line y2="63" transform="translate(1444.5 1338.5)" fill="none" stroke="#3d3939" stroke-width="6"/><line x2="39" y2="59" transform="translate(1405.5 1340.5)" fill="none" stroke="#202060" stroke-width="6"/><line x1="45" transform="translate(1345.5 1399.5)" fill="none" stroke="#202060" stroke-width="6"/><line y2="64" transform="translate(1465.5 1338.5)" fill="none" stroke="#202060" stroke-width="6"/></g></svg>